C:\Users\r0593348\3dpredictsim\Results\Batchsim_tmt_linear_v2\Pog_s1_tmt_aCst_d00_k500_ig24_act_GRF.mot
nRows=22
nColumns=19

name C:\Users\r0593348\3dpredictsim\Results\Batchsim_tmt_linear_v2\Pog_s1_tmt_aCst_d00_k500_ig24_act_GRF.mot
datacolumns 19
datarows 22
range 0.0000000000 0.3084556367
endheader
time 	ground_force_vx	ground_force_vy	ground_force_vz	ground_force_px	ground_force_py	ground_force_pz	1_ground_force_vx	1_ground_force_vy	1_ground_force_vz	1_ground_force_px	1_ground_force_py	1_ground_force_pz	ground_torque_x	ground_torque_y	ground_torque_z	1_ground_torque_x	1_ground_torque_y	1_ground_torque_z
        0.0000000000	      -78.4933838627	      177.9036460187	       30.6978978635	        0.2505548046	        0.0000000000	        0.0509517896	       32.1106322915	      202.2236045547	       -9.6542176601	       -0.4253054410	        0.0000000000	       -0.0557647288	        0.0000000000	        0.0000000000	        0.0000000000	        0.0000000000	        0.0000000000	        0.0000000000	
        0.0146883637	     -118.1426344098	      593.1344608923	       -2.8744804626	        0.2528134358	        0.0000000000	        0.0500405507	       27.5292196063	      148.0929843792	      -11.6059482534	       -0.4248158977	        0.0000000000	       -0.0560688331	        0.0000000000	        0.0000000000	        0.0000000000	        0.0000000000	        0.0000000000	        0.0000000000	
        0.0293767273	     -177.7605381982	      846.2348804757	       -9.4150473547	        0.2562032700	        0.0000000000	        0.0505848263	       11.5697583867	       76.7187529929	      -13.7619485842	       -0.4248092889	        0.0000000000	       -0.0569361427	        0.0000000000	        0.0000000000	        0.0000000000	        0.0000000000	        0.0000000000	        0.0000000000	
        0.0440650910	     -248.5437494965	     1031.6994230021	      -14.4301284722	        0.2685820910	        0.0000000000	        0.0541929586	      -13.1037372156	       17.2467239377	       -3.8856520337	       -0.4307357796	        0.0000000000	       -0.0567077262	        0.0000000000	        0.0000000000	        0.0000000000	        0.0000000000	        0.0000000000	        0.0000000000	
        0.0587534546	     -242.5332057000	     1018.1256253479	      -13.3490037869	        0.2776040852	        0.0000000000	        0.0565158975	      -18.8781198605	       14.7796734474	        0.7888723480	       -0.4210944752	        0.0000000000	       -0.0552279026	        0.0000000000	        0.0000000000	        0.0000000000	        0.0000000000	        0.0000000000	        0.0000000000	
        0.0734418183	     -202.9511814371	      898.6075268525	      -12.7260503363	        0.2838277392	        0.0000000000	        0.0578715601	      -24.6560072116	       16.7096487184	        0.3579634074	       -0.4005638143	        0.0000000000	       -0.0566350466	        0.0000000000	        0.0000000000	        0.0000000000	        0.0000000000	        0.0000000000	        0.0000000000	
        0.0881301819	     -173.5182511199	      802.4670980492	      -11.2911726272	        0.2882994638	        0.0000000000	        0.0587256087	      -26.3849416548	       15.7081410264	        0.6815718365	       -0.3744732377	        0.0000000000	       -0.0577168003	        0.0000000000	        0.0000000000	        0.0000000000	        0.0000000000	        0.0000000000	        0.0000000000	
        0.1028185456	     -151.4116333534	      751.5493580102	      -12.2918508895	        0.2921441001	        0.0000000000	        0.0592629096	      -24.8732366841	       13.4981022450	        0.6920150715	       -0.3439397609	        0.0000000000	       -0.0589618096	        0.0000000000	        0.0000000000	        0.0000000000	        0.0000000000	        0.0000000000	        0.0000000000	
        0.1175069092	     -134.4881975066	      724.4732562416	      -12.6223364946	        0.2963571541	        0.0000000000	        0.0599094974	      -22.6484142461	       11.4947960424	        0.6129825184	       -0.3103333110	        0.0000000000	       -0.0601568278	        0.0000000000	        0.0000000000	        0.0000000000	        0.0000000000	        0.0000000000	        0.0000000000	
        0.1321952729	     -121.7398919399	      710.7181704111	      -13.9293199336	        0.3020079165	        0.0000000000	        0.0605058166	      -19.7156651492	        9.5469884178	        0.4265746311	        0.0000000000	        0.0000000000	        0.0000000000	        0.0000000000	        0.0000000000	        0.0000000000	        0.0000000000	        0.0000000000	        0.0000000000	
        0.1468836365	     -110.4561490096	      691.1932664045	      -14.3846064082	        0.3081255272	        0.0000000000	        0.0608894315	      -15.7557897487	        7.4343585452	        0.1365076689	        0.0000000000	        0.0000000000	        0.0000000000	        0.0000000000	        0.0000000000	        0.0000000000	        0.0000000000	        0.0000000000	        0.0000000000	
        0.1615720002	      -99.8162131598	      668.0286700220	      -14.8130796591	        0.3137648487	        0.0000000000	        0.0611933503	      -11.5712292393	        5.3432119232	       -0.0400273916	        0.0000000000	        0.0000000000	        0.0000000000	        0.0000000000	        0.0000000000	        0.0000000000	        0.0000000000	        0.0000000000	        0.0000000000	
        0.1762603638	      -89.9741766440	      645.9119386288	      -15.6108892843	        0.3190106286	        0.0000000000	        0.0613696881	       -8.0968253091	        3.6786427072	       -0.1167873386	        0.0000000000	        0.0000000000	        0.0000000000	        0.0000000000	        0.0000000000	        0.0000000000	        0.0000000000	        0.0000000000	        0.0000000000	
        0.1909487275	      -80.8247216605	      626.1775317780	      -16.8042669839	        0.3238125586	        0.0000000000	        0.0614955338	       -5.7607220337	        2.5841805039	       -0.1408389928	        0.0000000000	        0.0000000000	        0.0000000000	        0.0000000000	        0.0000000000	        0.0000000000	        0.0000000000	        0.0000000000	        0.0000000000	
        0.2056370911	      -72.3371574712	      608.6670748597	      -18.2360820469	        0.3281817350	        0.0000000000	        0.0616111422	       -4.1124003504	        1.8238661272	       -0.1297213690	        0.0000000000	        0.0000000000	        0.0000000000	        0.0000000000	        0.0000000000	        0.0000000000	        0.0000000000	        0.0000000000	        0.0000000000	
        0.2203254548	      -64.2923582157	      593.6142772948	      -19.6919260790	        0.3322121734	        0.0000000000	        0.0617132806	       -2.8980818591	        1.2694731177	       -0.1017151994	        0.0000000000	        0.0000000000	        0.0000000000	        0.0000000000	        0.0000000000	        0.0000000000	        0.0000000000	        0.0000000000	        0.0000000000	
        0.2350138184	      -56.9463198481	      580.4811506102	      -20.9306559063	        0.3358789070	        0.0000000000	        0.0617968236	       -2.1307215263	        0.9199777625	       -0.0753587531	        0.0000000000	        0.0000000000	        0.0000000000	        0.0000000000	        0.0000000000	        0.0000000000	        0.0000000000	        0.0000000000	        0.0000000000	
        0.2497021821	      -50.4345528642	      569.3794888930	      -21.6087586678	        0.3391781944	        0.0000000000	        0.0618637340	       -1.6851480054	        0.7166290409	       -0.0572851514	        0.0000000000	        0.0000000000	        0.0000000000	        0.0000000000	        0.0000000000	        0.0000000000	        0.0000000000	        0.0000000000	        0.0000000000	
        0.2643905458	      -44.3711435907	      559.9563102617	      -22.1770831395	        0.3420878054	        0.0000000000	        0.0619049474	       -1.4392917891	        0.6030997020	       -0.0462691754	        0.0000000000	        0.0000000000	        0.0000000000	        0.0000000000	        0.0000000000	        0.0000000000	        0.0000000000	        0.0000000000	        0.0000000000	
        0.2790789094	      -38.4789192609	      551.8128427850	      -22.8040753161	        0.3446001667	        0.0000000000	        0.0619175358	       -1.3103597464	        0.5416309596	       -0.0393162963	        0.0000000000	        0.0000000000	        0.0000000000	        0.0000000000	        0.0000000000	        0.0000000000	        0.0000000000	        0.0000000000	        0.0000000000	
        0.2937672731	      -32.5564094767	      544.2130316294	      -23.4646936690	        0.3466905504	        0.0000000000	        0.0619011761	       -1.2474529559	        0.5093361311	       -0.0344920252	        0.0000000000	        0.0000000000	        0.0000000000	        0.0000000000	        0.0000000000	        0.0000000000	        0.0000000000	        0.0000000000	        0.0000000000	
        0.3084556367	      -26.1711206203	      536.2999952255	      -23.9095144185	        0.3483620865	        0.0000000000	        0.0618561445	       -1.2449294764	        0.5023216827	       -0.0312001720	        0.0000000000	        0.0000000000	        0.0000000000	        0.0000000000	        0.0000000000	        0.0000000000	        0.0000000000	        0.0000000000	        0.0000000000	
